<svg width="126" height="31" viewBox="0 0 126 31" fill="none" xmlns="http://www.w3.org/2000/svg">
<path d="M43.6591 12.204L46.4036 7.63911L49.1481 12.204H43.6591ZM51.4944 12.204L47.5767 5.68856L47.1075 4.90965H45.6997L45.2305 5.68856L41.3098 12.204L40.0719 14.263L38.0713 17.5894H40.4176L42.4181 14.263H50.3861L52.3866 17.5894H54.7328L52.7323 14.263L51.4944 12.204Z" fill="#1A1B2A"/>
<path d="M59.9401 4.90969H57.9458V15.5303V17.5893H59.9401H71.9338V15.5303H59.9401V4.90969Z" fill="#1A1B2A"/>
<path d="M93.0576 4.90968V6.96867H95.0488H107.046V4.90968H95.0488H93.0576Z" fill="#1A1B2A"/>
<path d="M95.0488 12.2806H104.557V10.2184H95.0488H93.0576V12.2806V15.5303V17.5893H95.0488H107.046V15.5303H95.0488V12.2806Z" fill="#1A1B2A"/>
<path d="M87.9304 4.90969H87.8502V4.97354L82.4539 9.26389H82.4507L77.1377 5.04057V4.90969H76.9741H75.9985H75.1465V17.5893H77.1377V7.63585L80.8176 10.56L82.4539 11.8593L84.087 10.5632L87.8502 7.57201V17.5893H89.8445V4.90969H88.9091H87.9304Z" fill="#1A1B2A"/>
<path d="M124.839 6.00463C124.064 5.27361 122.977 4.9097 121.579 4.9097H110.258V6.96869H121.357C122.23 6.96869 122.9 7.14426 123.37 7.4954C123.836 7.84974 124.067 8.45945 124.067 9.32455C124.067 10.1769 123.836 10.7835 123.37 11.141C122.9 11.5017 122.23 11.6805 121.357 11.6805L112.253 11.6644L110.258 11.6614V17.5893H112.253V13.7427H121.579C122.977 13.7427 124.064 13.3756 124.839 12.6478C125.611 11.9167 126 10.8089 126 9.32455C126 7.84016 125.611 6.73246 124.839 6.00463Z" fill="#1A1B2A"/>
<path d="M39.3768 21.5258H38.0713V21.1746H41.0747V21.5258H39.7693V25.0154H39.3768V21.5258Z" fill="#1A1B2A"/>
<path d="M54.8955 22.4915C54.8955 21.877 54.5028 21.5258 53.7598 21.5258H52.7731V23.4517H53.7598C54.5028 23.4517 54.8955 23.095 54.8955 22.4915ZM54.9167 25.0154L54.0677 23.7808C53.9723 23.792 53.8768 23.7974 53.7705 23.7974H52.7731V25.0154H52.3804V21.1747H53.7705C54.7151 21.1747 55.2881 21.6686 55.2881 22.4915C55.2881 23.095 54.9804 23.5175 54.439 23.6986L55.3466 25.0154H54.9167Z" fill="#1A1B2A"/>
<path d="M69.4328 23.6602L68.5413 21.5973L67.65 23.6602H69.4328ZM69.5761 23.9895H67.5067L67.0608 25.0154H66.6523L68.3503 21.1746H68.7376L70.4356 25.0154H70.0217L69.5761 23.9895Z" fill="#1A1B2A"/>
<path d="M83.2322 24.6643C84.2192 24.6643 84.8559 24.0169 84.8559 23.095C84.8559 22.1733 84.2192 21.5258 83.2322 21.5258H82.134V24.6643H83.2322ZM81.7412 21.1747H83.2533C84.442 21.1747 85.2432 21.9647 85.2432 23.095C85.2432 24.2253 84.442 25.0154 83.2533 25.0154H81.7412V21.1747Z" fill="#1A1B2A"/>
<path d="M96.5488 21.1747H96.9416V25.0154H96.5488V21.1747Z" fill="#1A1B2A"/>
<path d="M111.351 21.1746V25.0154H111.028L108.64 21.8989V25.0154H108.247V21.1746H108.571L110.964 24.2913V21.1746H111.351Z" fill="#1A1B2A"/>
<path d="M125.602 23.095H125.979V24.56C125.629 24.8837 125.13 25.0483 124.615 25.0483C123.485 25.0483 122.657 24.2198 122.657 23.095C122.657 21.9703 123.485 21.1418 124.62 21.1418C125.183 21.1418 125.671 21.3283 126 21.696L125.756 21.9538C125.443 21.6357 125.071 21.5039 124.636 21.5039C123.719 21.5039 123.045 22.1788 123.045 23.095C123.045 24.0057 123.719 24.6861 124.631 24.6861C124.987 24.6861 125.316 24.6039 125.602 24.39V23.095Z" fill="#1A1B2A"/>
<path d="M7.00483 20.5007C4.94879 23.396 1.97278 27.5811 0 30.4605L18.7052 0L20.7242 3.29118C19.7641 4.1052 18.8503 4.98306 17.9921 5.91839C13.9448 10.461 10.5983 15.5845 7.00483 20.5007Z" fill="#2374B0"/>
<path d="M7.18388 21.768C5.08154 24.2962 2.03134 27.9451 0 30.4605C1.23177 28.8516 2.44203 27.2236 3.66454 25.6082C7.19932 20.8965 10.9934 15.6197 14.5036 10.9303C15.7168 9.31183 16.9486 7.70614 18.2977 6.21847C19.1312 5.3023 20.0111 4.4404 20.9372 3.63596L22.6351 6.40042C21.0761 7.01662 19.6128 7.88172 18.3131 9.02773C15.3989 11.5624 9.83265 18.7865 7.18388 21.768Z" fill="#2374B0"/>
<path d="M0.279297 30.1392C3.07934 26.947 8.44943 20.7943 11.089 17.7043C12.3085 16.2742 13.5433 14.8567 14.7442 13.4139C15.9389 11.9677 17.146 10.5312 18.5476 9.31819C19.8287 8.17857 21.2705 7.31028 22.8079 6.6846L24.4842 9.41396C23.6415 9.48099 22.7987 9.66614 21.9713 9.98856C20.2765 10.6749 18.7915 11.7922 17.3714 12.9414C12.1726 17.3659 4.86371 25.0411 0.279297 30.1392Z" fill="#2374B0"/>
<path d="M15.6829 16.6317C10.0704 20.7528 4.82839 25.3976 0 30.4605C5.58474 24.424 11.3299 18.5119 17.5537 13.1808C18.9491 12.038 20.4093 10.927 22.0672 10.2471C22.91 9.90873 23.7682 9.71719 24.6295 9.65335L26.4479 12.6126C25.1451 12.4274 23.8145 12.4786 22.5056 12.8393C20.0142 13.6278 17.8192 15.1441 15.6829 16.6317Z" fill="#2374B0"/>
<path d="M15.6366 18.6843C10.1321 22.1702 4.78208 25.9627 0 30.4605C4.99201 25.5924 10.2403 20.9763 15.8589 16.8934C17.9674 15.4091 20.1284 13.8959 22.5797 13.1042C23.9133 12.7243 25.2686 12.67 26.5991 12.8584L28.2384 15.5272C27.0807 15.1759 25.8675 15.0196 24.645 15.0961C21.3695 15.3388 18.4088 16.9988 15.6366 18.6843Z" fill="#2374B0"/>
<path d="M30.285 24.6506C28.3123 25.9913 25.9753 26.7351 23.6846 27.2746C22.4682 27.5045 20.0201 27.9226 18.174 28.2546H18.1648C17.677 28.2419 17.2324 28.2323 16.8311 28.2259C19.1743 26.0201 20.0726 23.3929 19.2545 21.9532C18.9983 21.5031 18.4179 20.8934 17.6091 20.6443C17.2911 20.5453 16.9793 20.5135 16.6768 20.5326C18.4025 19.5685 20.2795 18.8981 22.2027 18.4416C23.7247 18.0394 25.3362 17.8926 26.886 18.1384C28.371 18.448 29.9794 19.0737 30.8499 20.4177C31.6927 21.7265 31.5939 23.7025 30.285 24.6506Z" fill="#2374B0"/>
<path d="M33.6008 24.2675C33.6039 24.2707 33.6008 24.2707 33.6008 24.2739C33.4619 24.7974 33.1501 25.2507 32.5882 25.5412C31.8812 25.8956 31.094 26.1158 30.3191 26.3361C27.9636 26.9458 25.5772 27.4215 23.1939 27.8939L20.86 28.3536H20.8539C19.9925 28.3153 19.1991 28.2897 18.489 28.2642C22.1752 27.7503 26.2101 27.2906 29.4084 25.5221C31.591 24.5708 32.3505 22.365 31.1094 20.2453C30.1648 18.8087 28.5101 18.1735 26.9324 17.8543C25.3302 17.6085 23.694 17.7585 22.1443 18.2054C20.1469 18.713 18.1772 19.4663 16.4083 20.555H16.4052C15.939 20.6188 15.5037 20.7752 15.1333 20.9476C13.2717 21.7968 7.56051 25.3433 0 30.4606C4.93635 26.1669 10.2803 22.4097 15.797 18.9588C20.1315 16.1751 24.225 14.5248 28.3588 15.7282L33.6008 24.2675Z" fill="#2374B0"/>
<path d="M35.3174 27.0608C34.7895 26.9778 34.2461 26.965 33.7213 27.0161C32.1592 27.1023 30.6157 27.3385 29.0751 27.5747C27.3216 27.8748 25.5835 28.2291 23.8331 28.5164H23.83C23.4657 28.4941 23.0891 28.4717 22.694 28.4494C22.3266 28.427 21.9685 28.4079 21.6196 28.3919C22.1969 28.3025 22.7526 28.2132 23.2342 28.1365C25.636 27.7247 28.0378 27.2714 30.3902 26.617C31.1714 26.3776 31.9647 26.1701 32.7057 25.7551C33.2583 25.4487 33.5793 24.9954 33.7275 24.4719L35.3174 27.0608Z" fill="#2374B0"/>
<path d="M36.2865 28.6409C35.0269 28.1813 33.6223 28.1334 32.091 28.2291C29.9979 28.3089 27.8986 28.3983 25.8148 28.6409C25.8117 28.6441 25.8086 28.6409 25.8086 28.6409C25.5339 28.6218 25.2591 28.6026 24.9751 28.5835C26.3612 28.3696 27.7412 28.1014 29.1242 27.8908C30.6554 27.629 32.196 27.396 33.7365 27.2587C34.3045 27.1885 34.8788 27.1821 35.4375 27.2555L36.2865 28.6409Z" fill="#2374B0"/>
<path d="M37.7345 31C34.0978 29.7774 31.0569 29.2219 28.8866 28.941C28.4174 28.8804 27.9574 28.8261 27.4912 28.7814C29.0255 28.6697 30.566 28.6026 32.1003 28.5196C33.7335 28.4111 35.1413 28.4175 36.4409 28.8899V28.8931L37.7345 31Z" fill="#2374B0"/>
</svg>
